<?xml version="1.0" encoding="iso-8859-1"?>
<!-- Generator: Adobe Illustrator 19.0.0, SVG Export Plug-In . SVG Version: 6.00 Build 0)  -->
<svg version="1.1" id="Capa_1" xmlns="http://www.w3.org/2000/svg" xmlns:xlink="http://www.w3.org/1999/xlink" x="0px" y="0px"
	 viewBox="0 0 512 512" style="enable-background:new 0 0 512 512;" xml:space="preserve">
<path style="fill:#FC644F;" d="M389.333,270.933l120.533,163.2C419.2,464,210.133,457.6,129.067,416V125.867
	c80,41.6,290.133,49.067,380.8,18.133L389.333,270.933L389.333,270.933z"/>
<polygon style="fill:#F1543F;" points="129.067,414.933 194.133,382.933 146.133,237.867 129.067,262.4 "/>
<path style="fill:#FF7058;" d="M40.533,46.933V336c0,0,75.733-20.267,152.533,45.867v-288
	C116.267,26.667,40.533,46.933,40.533,46.933z"/>
<path style="fill:#40596B;" d="M32,0L32,0C16,0,2.133,12.8,2.133,28.8V512H60.8V28.8C60.8,12.8,48,0,32,0z"/>
<g>
</g>
<g>
</g>
<g>
</g>
<g>
</g>
<g>
</g>
<g>
</g>
<g>
</g>
<g>
</g>
<g>
</g>
<g>
</g>
<g>
</g>
<g>
</g>
<g>
</g>
<g>
</g>
<g>
</g>
</svg>
