<svg xmlns="http://www.w3.org/2000/svg" viewBox="0 0 512 512">
  <defs/>
  <circle cx="256" cy="256" r="256" fill="#ffe17d"/>
  <g fill="#ffd164">
    <path d="M293 475A256 256 0 0195 57a255 255 0 10360 360c-44 36-101 58-162 58z"/>
    <path d="M182 512c9 0 16-7 16-17 0-9-7-16-16-16h8c9 0 16-7 16-17 0-9-7-16-16-16h8c9 0 17-7 17-17 0-9-8-16-17-16h91c9 0 17-7 17-17 0-9-8-16-17-16H140c-13 0-24-11-24-25v-49c0-10-8-17-17-17s-16 7-16 17v40c0 11-4 22-11 31l-8 10c-9 11-14 26-14 41v34c0 28 22 50 49 50h83z"/>
  </g>
  <g fill="#ffc350">
    <path d="M198 495H99c-18 0-33-14-33-33v-34c0-11 4-22 11-31l8-10c9-11 14-26 14-41v-57c-9 0-16 7-16 17v40c0 11-4 22-11 31l-8 10c-9 11-14 26-14 41v34c0 28 22 50 49 50h83c9 0 16-7 16-17zM306 396H190a8 8 0 100 17h99c9 0 17-7 17-17zM173 438c0 4 4 8 9 8h16c9 0 17-7 17-17h-33c-5 0-9 4-9 9z"/>
    <path d="M165 471c0 4 4 8 8 8h17c9 0 16-7 16-17h-33c-4 0-8 4-8 9z"/>
  </g>
  <g fill="#aa7346">
    <path d="M297 341l-4-1c-1-1-58-29-120-30-6 0-10-5-10-11s5-10 10-10c68 2 126 31 129 32a10 10 0 01-5 20zM190 134l-6-2c-2-1-38-29-80-7a10 10 0 01-10-19c55-27 100 8 102 10a10 10 0 01-6 18zM306 151a10 10 0 01-2-21l82-16a10 10 0 114 20l-82 17h-2z"/>
  </g>
  <path fill="#7d5046" d="M152 208c-11-1-19-12-18-23l2-16c1-12 12-20 23-18 11 1 19 11 18 23l-2 16c-1 11-12 19-23 18z"/>
  <path fill="#9c6846" d="M159 151h-4l-4 28a12 12 0 1025 3l1-8c1-12-7-22-18-23z"/>
  <path fill="#7d5046" d="M325 226c-11-1-19-12-18-23l2-16c1-12 12-20 23-18 11 1 19 11 18 23l-2 16c-1 11-12 19-23 18z"/>
  <path fill="#9c6846" d="M332 169h-4l-4 28a12 12 0 1025 3l1-8c1-12-7-22-18-23z"/>
</svg>