<svg xmlns="http://www.w3.org/2000/svg" viewBox="0 0 512 512">
  <defs/>
  <circle cx="256" cy="256" r="256" fill="#ffe17d"/>
  <g fill="#ffd164">
    <ellipse cx="156.9" cy="247.7" rx="74.3" ry="66.1"/>
    <ellipse cx="355.1" cy="247.7" rx="74.3" ry="66.1"/>
    <path d="M293 475A256 256 0 0195 57a255 255 0 10360 360c-44 36-101 58-162 58z"/>
  </g>
  <path fill="#5a4650" d="M229 229l-13-10a49 49 0 0180 0l-13 9a33 33 0 00-54 1z"/>
  <path fill="#6e5a64" d="M157 165c-9 0-18 2-27 5-7 2-14 3-22 3H74c-4 0-8 4-8 9v16c0 5 3 10 7 13l2 2c5 3 8 8 8 14v4c0 37 33 66 74 66s74-29 74-66-33-66-74-66z"/>
  <g fill="#aa7346">
    <path d="M256 398c-42 0-83-20-107-53a10 10 0 0116-13 113 113 0 00182 0 10 10 0 1116 13c-24 33-64 53-107 53zM182 151h-50a10 10 0 110-21h50a10 10 0 110 21zM380 151h-50a10 10 0 110-21h50a10 10 0 110 21z"/>
  </g>
  <path fill="#5a4650" d="M157 281c-32 0-58-22-58-50 0-27 26-49 58-49s58 22 58 49c0 28-26 50-58 50z"/>
  <path fill="#84737b" d="M157 206c22 0 41 6 56 14-6-22-29-38-56-38s-50 16-56 38c14-8 34-14 56-14z"/>
  <path fill="#6e5a64" d="M281 231c0 37 33 66 74 66s74-29 74-66v-4c0-6 3-11 8-14l2-2c4-3 7-8 7-13v-16c0-5-4-9-8-9h-34c-8 0-15-1-22-3-9-3-18-5-27-5-41 0-74 30-74 66z"/>
  <path fill="#5a4650" d="M297 231c0-27 26-49 58-49s58 22 58 49c0 28-26 50-58 50s-58-22-58-50z"/>
  <path fill="#84737b" d="M355 206c-22 0-41 6-56 14 6-22 29-38 56-38s50 16 56 38c-14-8-34-14-56-14z"/>
</svg>