<?xml version="1.0" encoding="iso-8859-1"?>
<!-- Generator: Adobe Illustrator 19.0.0, SVG Export Plug-In . SVG Version: 6.00 Build 0)  -->
<svg version="1.1" id="Capa_1" xmlns="http://www.w3.org/2000/svg" xmlns:xlink="http://www.w3.org/1999/xlink" x="0px" y="0px"
	 viewBox="0 0 512 512" style="enable-background:new 0 0 512 512;" xml:space="preserve">
<circle style="fill:#FFE17D;" cx="256" cy="256" r="256"/>
<g>
	<ellipse style="fill:#FFD164;" cx="156.9" cy="247.74" rx="74.32" ry="66.06"/>
	<ellipse style="fill:#FFD164;" cx="355.1" cy="247.74" rx="74.32" ry="66.06"/>
	<path style="fill:#FFD164;" d="M293.161,474.839c-141.385,0-256-114.615-256-256c0-61.227,21.521-117.411,57.376-161.463
		C36.863,104.316,0,175.842,0,256c0,141.385,114.615,256,256,256c80.159,0,151.685-36.864,198.626-94.538
		C410.573,453.317,354.389,474.839,293.161,474.839z"/>
</g>
<path style="fill:#5A4650;" d="M229.298,228.52l-13.468-9.556c9.234-13.008,24.25-20.77,40.186-20.77
	c15.798,0,30.75,7.661,39.992,20.496l-13.403,9.653c-6.145-8.536-16.089-13.633-26.589-13.633
	C245.427,214.71,235.435,219.875,229.298,228.52z"/>
<path style="fill:#6E5A64;" d="M156.903,165.161c-9.323,0-18.244,1.544-26.47,4.348c-7.185,2.45-14.657,3.91-22.249,3.91H74.323
	c-4.561,0-8.258,3.697-8.258,8.258v15.934c0,5.522,2.76,10.68,7.355,13.743l1.978,1.319c4.781,3.187,7.756,8.639,7.336,14.37
	c-0.101,1.383-0.153,2.777-0.153,4.183c0,36.427,33.339,66.065,74.323,66.065s74.323-29.637,74.323-66.065
	S197.887,165.161,156.903,165.161z"/>
<g>
	<path style="fill:#AA7346;" d="M256.032,398.452c-42.468,0-82.613-20.093-107.387-53.75c-3.379-4.593-2.395-11.056,2.194-14.435
		c4.597-3.383,11.056-2.399,14.435,2.194c20.895,28.395,54.823,45.347,90.758,45.347s69.863-16.952,90.75-45.343
		c3.379-4.597,9.831-5.577,14.435-2.198c4.589,3.379,5.573,9.839,2.194,14.431C338.645,378.355,298.508,398.452,256.032,398.452z"/>
	<path style="fill:#AA7346;" d="M181.677,150.71h-49.548c-5.702,0-10.323-4.621-10.323-10.323s4.621-10.323,10.323-10.323h49.548
		c5.702,0,10.323,4.621,10.323,10.323S187.379,150.71,181.677,150.71z"/>
	<path style="fill:#AA7346;" d="M379.871,150.71h-49.548c-5.702,0-10.323-4.621-10.323-10.323s4.621-10.323,10.323-10.323h49.548
		c5.702,0,10.323,4.621,10.323,10.323S385.573,150.71,379.871,150.71z"/>
</g>
<path style="fill:#5A4650;" d="M156.903,280.774c-31.871,0-57.806-22.226-57.806-49.548c0-27.323,25.935-49.548,57.806-49.548
	s57.806,22.226,57.806,49.548C214.71,258.548,188.774,280.774,156.903,280.774z"/>
<path style="fill:#84737B;" d="M156.903,206.452c21.712,0,41.435,5.093,56.192,13.344c-6.044-21.82-28.916-38.118-56.192-38.118
	c-27.275,0-50.147,16.297-56.192,38.117C115.469,211.544,135.192,206.452,156.903,206.452z"/>
<path style="fill:#6E5A64;" d="M280.774,231.226c0,36.427,33.339,66.065,74.323,66.065s74.323-29.637,74.323-66.065
	c0-1.405-0.052-2.8-0.153-4.183c-0.419-5.73,2.556-11.182,7.336-14.37l1.978-1.319c4.595-3.063,7.355-8.221,7.355-13.743v-15.934
	c0-4.561-3.697-8.258-8.258-8.258h-33.862c-7.591,0-15.063-1.461-22.249-3.91c-8.226-2.804-17.146-4.348-26.47-4.348
	C314.113,165.161,280.774,194.798,280.774,231.226z"/>
<path style="fill:#5A4650;" d="M297.29,231.226c0-27.323,25.935-49.548,57.806-49.548s57.806,22.226,57.806,49.548
	c0,27.323-25.935,49.548-57.806,49.548S297.29,258.548,297.29,231.226z"/>
<path style="fill:#84737B;" d="M355.097,206.452c-21.712,0-41.435,5.093-56.192,13.344c6.044-21.82,28.916-38.118,56.192-38.118
	c27.275,0,50.147,16.297,56.192,38.117C396.531,211.544,376.808,206.452,355.097,206.452z"/>
<g>
</g>
<g>
</g>
<g>
</g>
<g>
</g>
<g>
</g>
<g>
</g>
<g>
</g>
<g>
</g>
<g>
</g>
<g>
</g>
<g>
</g>
<g>
</g>
<g>
</g>
<g>
</g>
<g>
</g>
</svg>
