<svg id="Capa_1" enable-background="new 0 0 512 512" height="512" viewBox="0 0 512 512" width="512" xmlns="http://www.w3.org/2000/svg"><circle cx="256.25" cy="256" fill="#fec753" r="245"/><path d="m256 105.467c-123.226 0-226.406 111.129-253.017 142.421-3.978 4.678-3.978 11.545 0 16.223 26.611 31.292 129.791 142.422 253.017 142.422s226.406-111.129 253.017-142.421c3.978-4.678 3.978-11.545 0-16.223-26.611-31.292-129.791-142.422-253.017-142.422z" fill="#35528c"/><path d="m41.966 256c0-24.313 95.826-150.533 214.034-150.533-122.22 0-224.719 109.322-252.349 141.639-4.381 5.124-4.381 12.663 0 17.788 27.63 32.317 130.129 141.639 252.349 141.639-118.208 0-214.034-126.22-214.034-150.533z" fill="#1f3a60"/><circle cx="256" cy="256" fill="#99d3ff" r="132"/><path d="m176 256c0-64.001 45.551-117.357 106-129.434-8.407-1.68-17.099-2.566-26-2.566-72.902 0-132 59.098-132 132s59.098 132 132 132c8.901 0 17.593-.887 26-2.566-60.449-12.077-106-65.433-106-129.434z" fill="#5bb3ce"/><circle cx="254.603" cy="256" fill="#1f3a60" r="65.603"/><circle cx="308.058" cy="225.628" fill="#dcf3ff" r="27.942"/></svg>