<svg xmlns="http://www.w3.org/2000/svg" viewBox="0 0 512 512">
  <defs/>
  <circle cx="256.3" cy="256" r="245" fill="#fec753"/>
  <path fill="#35528c" d="M256 105C133 105 30 217 3 248c-4 5-4 11 0 16 27 31 130 143 253 143s226-112 253-143c4-5 4-11 0-16-27-31-130-143-253-143z"/>
  <path fill="#1f3a60" d="M42 256c0-24 96-151 214-151C134 105 31 215 4 247c-5 5-5 13 0 18 27 32 130 142 252 142-118 0-214-127-214-151z"/>
  <circle cx="256" cy="256" r="132" fill="#99d3ff"/>
  <path fill="#5bb3ce" d="M176 256c0-64 46-117 106-129a133 133 0 00-158 129 132 132 0 00158 129c-60-12-106-65-106-129z"/>
  <circle cx="254.6" cy="256" r="65.6" fill="#1f3a60"/>
  <circle cx="308.1" cy="225.6" r="27.9" fill="#dcf3ff"/>
</svg>