<svg xmlns="http://www.w3.org/2000/svg" viewBox="0 0 512 512">
  <defs/>
  <path fill="#dbd9dc" d="M249 0A243 243 0 0017 244v144c0 32 25 58 57 58h42c9 0 16 7 16 16v25c0 14 11 25 25 25h198c14 0 25-11 25-25v-25c0-9 7-16 16-16h42c32 0 57-26 57-58V239C495 105 385-4 249 0z"/>
  <path fill="#c9c6ca" d="M140 421c-22 0-41-18-41-41V244C99 126 184 24 297 4c-21-4-44-5-67-3A243 243 0 0017 244v144c0 32 25 58 57 58h42c9 0 16 7 16 16v25c0 14 11 25 25 25h25v-50c0-22-19-41-42-41z"/>
  <g fill="#867e88">
    <path d="M248 365l-26 63c-3 7 4 13 11 11l17-7c4-2 8-2 12 0l17 7c7 2 14-4 11-11l-26-63c-3-7-13-7-16 0z"/>
    <circle cx="148.7" cy="289" r="74.3"/>
  </g>
  <path fill="#6f6571" d="M149 248c35 0 65 24 72 58a74 74 0 10-145 0c8-34 37-58 73-58z"/>
  <circle cx="363.4" cy="289" r="74.3" fill="#867e88"/>
  <g fill="#6f6571">
    <path d="M363 248c36 0 65 24 73 58a74 74 0 10-145 0c7-34 37-58 72-58zM238 401a49 49 0 0136 0l6 2-16-38c-3-7-13-7-16 0l-16 38 6-2z"/>
  </g>
  <g fill="#c9c6ca">
    <path d="M223 512h-17v-25c0-4 4-8 9-8 4 0 8 4 8 8v25zM306 512h-17v-25c0-4 4-8 8-8 5 0 9 4 9 8v25zM347 512h-17v-25c0-4 4-8 9-8 4 0 8 4 8 8v25zM264 512h-16v-25c0-4 3-8 8-8s8 4 8 8v25z"/>
  </g>
  <path fill="#b7b2b8" d="M182 512h-17v-25c0-4 4-8 8-8 5 0 9 4 9 8v25z"/>
</svg>